<svg width="24" height="24" viewBox="0 0 24 24" fill="none" xmlns="http://www.w3.org/2000/svg">
  <path d="M3 8.5C3 7.4 3.9 6.5 5 6.5H10L12 8.5H19C20.1 8.5 21 9.4 21 10.5V17C21 18.1 20.1 19 19 19H5C3.9 19 3 18.1 3 17V8.5Z" stroke="white" stroke-width="1.8" stroke-linejoin="round"/>
  <path d="M10.5 13.2L11.4 15L13.4 15.3L12 16.7L12.3 18.7L10.5 17.8L8.7 18.7L9 16.7L7.6 15.3L9.6 15L10.5 13.2Z" fill="white"/>
  <circle cx="17.5" cy="13" r="1.2" fill="white"/>
  <circle cx="16" cy="16.5" r="1" fill="white" opacity="0.8"/>
</svg>
