<svg width="64" height="64" viewBox="0 0 64 64" fill="none" xmlns="http://www.w3.org/2000/svg">
  <defs>
    <linearGradient id="jsonBg" x1="9" y1="8" x2="55" y2="57" gradientUnits="userSpaceOnUse">
      <stop stop-color="#8B5CF6"/>
      <stop offset="1" stop-color="#4C1D95"/>
    </linearGradient>
  </defs>
  <rect x="6" y="6" width="52" height="52" rx="14" fill="url(#jsonBg)"/>
  <path d="M24 21C21.8 21.3 20.5 23 20.5 25.2V27.8C20.5 29.1 19.6 30.2 18.3 30.5C19.6 30.8 20.5 31.9 20.5 33.2V35.8C20.5 38 21.8 39.7 24 40" stroke="white" stroke-width="2.3" stroke-linecap="round"/>
  <path d="M40 21C42.2 21.3 43.5 23 43.5 25.2V27.8C43.5 29.1 44.4 30.2 45.7 30.5C44.4 30.8 43.5 31.9 43.5 33.2V35.8C43.5 38 42.2 39.7 40 40" stroke="white" stroke-width="2.3" stroke-linecap="round"/>
  <circle cx="30" cy="28" r="2.1" fill="#DDD6FE"/>
  <circle cx="34" cy="33" r="2.1" fill="#DDD6FE"/>
</svg>
